<mxfile host="65bd71144e">
    <diagram id="GL-ea-D3b9PqfTdmTsmx" name="Page-1">
        <mxGraphModel dx="1571" dy="554" grid="1" gridSize="10" guides="1" tooltips="1" connect="1" arrows="1" fold="1" page="1" pageScale="1" pageWidth="850" pageHeight="1100" math="0" shadow="0">
            <root>
                <mxCell id="0"/>
                <mxCell id="1" parent="0"/>
                <mxCell id="2" value="MariaDB" style="rounded=1;whiteSpace=wrap;html=1;" parent="1" vertex="1">
                    <mxGeometry x="-80" y="120" width="120" height="60" as="geometry"/>
                </mxCell>
                <mxCell id="3" value="Redis" style="rounded=1;whiteSpace=wrap;html=1;" parent="1" vertex="1">
                    <mxGeometry x="-80" y="200" width="120" height="60" as="geometry"/>
                </mxCell>
                <mxCell id="17" style="edgeStyle=orthogonalEdgeStyle;rounded=1;sketch=0;html=1;entryX=1;entryY=0.5;entryDx=0;entryDy=0;" parent="1" source="4" target="2" edge="1">
                    <mxGeometry relative="1" as="geometry"/>
                </mxCell>
                <mxCell id="4" value="" style="rounded=1;whiteSpace=wrap;html=1;" parent="1" vertex="1">
                    <mxGeometry x="110" y="280" width="130" height="200" as="geometry"/>
                </mxCell>
                <mxCell id="12" style="edgeStyle=orthogonalEdgeStyle;rounded=1;sketch=0;html=1;" parent="1" source="5" target="2" edge="1">
                    <mxGeometry relative="1" as="geometry"/>
                </mxCell>
                <mxCell id="14" style="edgeStyle=orthogonalEdgeStyle;rounded=1;sketch=0;html=1;entryX=1;entryY=0.5;entryDx=0;entryDy=0;" parent="1" source="5" target="6" edge="1">
                    <mxGeometry relative="1" as="geometry"/>
                </mxCell>
                <mxCell id="16" style="edgeStyle=orthogonalEdgeStyle;rounded=1;sketch=0;html=1;entryX=1;entryY=0.5;entryDx=0;entryDy=0;" parent="1" source="5" target="4" edge="1">
                    <mxGeometry relative="1" as="geometry">
                        <Array as="points">
                            <mxPoint x="460" y="150"/>
                            <mxPoint x="460" y="380"/>
                        </Array>
                    </mxGeometry>
                </mxCell>
                <mxCell id="5" value="Backend" style="rounded=1;whiteSpace=wrap;html=1;" parent="1" vertex="1">
                    <mxGeometry x="480" y="120" width="120" height="60" as="geometry"/>
                </mxCell>
                <mxCell id="13" style="edgeStyle=orthogonalEdgeStyle;rounded=1;sketch=0;html=1;" parent="1" source="6" target="3" edge="1">
                    <mxGeometry relative="1" as="geometry"/>
                </mxCell>
                <mxCell id="15" style="edgeStyle=orthogonalEdgeStyle;rounded=1;sketch=0;html=1;entryX=1;entryY=0.5;entryDx=0;entryDy=0;" parent="1" source="6" target="4" edge="1">
                    <mxGeometry relative="1" as="geometry"/>
                </mxCell>
                <mxCell id="6" value="Core" style="rounded=1;whiteSpace=wrap;html=1;" parent="1" vertex="1">
                    <mxGeometry x="280" y="200" width="120" height="60" as="geometry"/>
                </mxCell>
                <mxCell id="10" style="edgeStyle=orthogonalEdgeStyle;html=1;rounded=1;sketch=0;entryX=1;entryY=0.5;entryDx=0;entryDy=0;" parent="1" source="7" target="5" edge="1">
                    <mxGeometry relative="1" as="geometry"/>
                </mxCell>
                <mxCell id="7" value="AdminFrontEnd" style="rounded=1;whiteSpace=wrap;html=1;" parent="1" vertex="1">
                    <mxGeometry x="680" y="80" width="120" height="60" as="geometry"/>
                </mxCell>
                <mxCell id="11" style="edgeStyle=orthogonalEdgeStyle;rounded=1;sketch=0;html=1;entryX=1;entryY=0.5;entryDx=0;entryDy=0;" parent="1" source="8" target="5" edge="1">
                    <mxGeometry relative="1" as="geometry"/>
                </mxCell>
                <mxCell id="8" value="UserFrontEnd" style="rounded=1;whiteSpace=wrap;html=1;glass=0;" parent="1" vertex="1">
                    <mxGeometry x="680" y="160" width="120" height="60" as="geometry"/>
                </mxCell>
                <mxCell id="18" value="OMS Driver 1" style="rounded=1;whiteSpace=wrap;html=1;" vertex="1" parent="1">
                    <mxGeometry x="115" y="290" width="120" height="40" as="geometry"/>
                </mxCell>
                <mxCell id="20" value="OMS Driver 2" style="rounded=1;whiteSpace=wrap;html=1;" vertex="1" parent="1">
                    <mxGeometry x="115" y="340" width="120" height="40" as="geometry"/>
                </mxCell>
                <mxCell id="23" value="OMS Driver 3" style="rounded=1;whiteSpace=wrap;html=1;" vertex="1" parent="1">
                    <mxGeometry x="115" y="427" width="120" height="40" as="geometry"/>
                </mxCell>
                <mxCell id="24" value="" style="endArrow=none;dashed=1;html=1;dashPattern=1 3;strokeWidth=2;" edge="1" parent="1">
                    <mxGeometry width="50" height="50" relative="1" as="geometry">
                        <mxPoint x="174.66" y="420" as="sourcePoint"/>
                        <mxPoint x="174.66" y="380" as="targetPoint"/>
                    </mxGeometry>
                </mxCell>
            </root>
        </mxGraphModel>
    </diagram>
</mxfile>